<svg xmlns="http://www.w3.org/2000/svg" viewBox="0 0 200 70" fill="none">
  <!-- V -->
  <path d="M10 12 L26 58 H38 L54 12 H42 L32 44 L22 12 Z" fill="#F5F0E8" stroke="#F5F0E8" stroke-width="2" stroke-linejoin="round"/>
  <!-- a -->
  <path d="M78 28 C70 28 64 33 64 41 C64 49 70 54 76 54 C80 54 83 52 85 49 V53 H95 V36 C95 30 90 25 82 25 C76 25 71 27 67 31 L72 36 C75 33 78 32 81 32 C84 32 86 34 86 36 V37 C84 36 81 35 78 35 Z M80 47 C77 47 75 45 75 43 C75 41 77 39 80 39 C83 39 85 41 85 43 C85 45 83 47 80 47 Z" fill="#F5F0E8"/>
  <!-- p -->
  <path d="M105 25 V68 H115 V50 C117 52 120 54 124 54 C132 54 138 47 138 39 C138 31 132 25 124 25 C120 25 117 26 115 28 V25 Z M122 46 C118 46 115 43 115 39 C115 35 118 32 122 32 C126 32 129 35 129 39 C129 43 126 46 122 46 Z" fill="#F5F0E8"/>
  <!-- i -->
  <rect x="148" y="25" width="10" height="28" rx="3" fill="#F5F0E8"/>
  <circle cx="153" cy="16" r="5" fill="#F5F0E8"/>
</svg>
